<svg xmlns="http://www.w3.org/2000/svg" width="340" height="92" viewBox="0 0 340 92" fill="none"><path d="M66.5992 72.3C66.5992 67.1 66.5992 47.4 66.5992 47.4C66.5992 44 63.7992 41.1 60.2992 41.1H56.7992C55.4992 44.3 54.3992 47.3 54.0992 50.6C52.7992 63.1 56.2992 71.7 56.2992 71.8L58.6992 77.7L52.7992 75.4C52.3992 75.2 43.0992 71.6 32.6992 64.6C21.9992 57.4 14.1992 49.6 9.39922 41.2H6.99922C3.59922 41.2 0.699219 44 0.699219 47.5V76C0.699219 79.4 3.49922 82.3 6.99922 82.3H48.9992L75.4992 91.7C75.4992 91.5 66.5992 81.5 66.5992 72.3Z" fill="black"></path><path d="M57.6003 20.5C60.1003 32.7 52.4003 40.4 51.4003 50.4C50.0003 63.8 53.8003 72.9 53.8003 72.9C53.8003 72.9 16.7003 58.3 8.30027 32C4.10027 18.7 13.6003 4.8 27.2003 1.6C40.8003 -1.5 54.8003 6.8 57.6003 20.5ZM25.7003 38.7L46.2003 26.8L25.7003 15V38.7Z" fill="#665EA0"></path><path d="M136.701 41.1C140.201 41.1 143.001 38.3 143.001 34.8C143.001 31.3 140.201 28.6 136.701 28.6C133.101 28.6 130.301 31.3 130.301 34.8C130.301 38.3 133.101 41.1 136.701 41.1Z" fill="black"></path><path d="M142.3 43.6H131V78H142.3V43.6Z" fill="black"></path><path d="M172.8 24.5V47.8C170.4 44.6 167.3 43.2 162.8 43.2C154.1 43.2 147.5 50.8 147.5 60.9C147.5 70.9 154.3 78.7 163 78.7C167.5 78.7 170.9 77.1 173.1 74.2L172.9 78H185.7V24.5H172.8V24.5ZM173.1 60.8C173.1 65.7 170.4 68.7 165.9 68.7C161.6 68.7 159 65.8 159 60.8C159 56.1 161.7 53.2 165.9 53.2C170.3 53.2 173.1 56.1 173.1 60.8Z" fill="black"></path><path d="M232.799 24.4H190.199V36.3H204.399V77.9H218.699V36.3H232.799V24.4Z" fill="#665EA0"></path><path d="M255.6 48.4C252.4 45 247.8 43.1 242.4 43.1C231.7 43.1 223.6 50.7 223.6 60.8C223.6 71.5 231.6 78.6 243.5 78.6C251.3 78.6 255.3 75.9 258 73.6L258.3 73.4L251.8 66.4L251.5 66.6C250.1 67.6 247.3 69.2 243.3 69.2C239 69.2 236.3 67.6 235.2 64.5H260.3V64.2C260.9 57.8 259.2 52.2 255.6 48.4ZM249 57.6H235.1C236 54.2 238.5 52.5 242.5 52.5C246.2 52.5 248.4 54.3 249 57.6Z" fill="#665EA0"></path><path d="M289.5 65.7C287.9 67.3 286.2 68.7 283 68.7C278.6 68.7 275.9 65.7 275.9 60.8C275.9 56.1 278.6 53.1 283 53.1C285.5 53.1 288 54.4 289.2 56.4L289.4 56.8L297.5 50.2L297.3 49.9C293.5 45.1 289.2 43.1 283 43.1C272.2 43.1 264.4 50.5 264.4 60.8C264.4 71.1 272.2 78.6 283 78.6C289.1 78.6 293.3 76.8 297.1 72.5L297.3 72.2L289.6 65.5L289.5 65.7Z" fill="#665EA0"></path><path d="M325.7 43.2C321.4 43.2 317.9 45 315.7 48.2V24.5H303V78H315.7V59.8C315.7 55.8 318 53.6 322.1 53.6C325.5 53.6 327.3 55.5 327.3 59.1V78H339.3V58.4C339.3 49.1 333.5 43.2 325.7 43.2Z" fill="#665EA0"></path><path d="M143.8 24.9C143.8 24.9 128.6 24.4 128.5 24.4H113.9L105.2 44.8L103.1 49.4L92.2004 24.4H76.9004C76.8004 24.4 60.4004 24.9 60.4004 24.9C60.4004 24.9 72.2004 26.6 78.3004 27.5L102.1 78.7C102.3 79.2 102.8 79.2 103 78.7L109.6 64.5L111.7 59.9L127 27.2C129.1 27.1 143.8 24.9 143.8 24.9Z" fill="black"></path></svg>