<svg id="Trust_logo" data-name="Trust logo" xmlns="http://www.w3.org/2000/svg" width="185" height="57" viewBox="0 0 185 57">
  <path id="Path_2" data-name="Path 2" d="M419.771,64.787c-.132.091-.257.25-.4.264a13.561,13.561,0,0,1-8.629-1.485,8.214,8.214,0,0,1-3.936-6.091,15.057,15.057,0,0,1-.176-2.374q-.018-11.949-.007-23.9c0-.783,0-.784.772-.784,1.453,0,2.906.017,4.359-.009.5-.009.7.109.737.661.123,1.821.327,3.635.474,5.454.03.367.187.447.511.445,1.554-.009,3.109.012,4.663-.013.478-.008.651.125.64.624-.03,1.369-.035,2.74,0,4.109.015.539-.187.652-.674.643-1.469-.025-2.94.008-4.41-.018-.484-.008-.643.147-.641.634.011,2.909-.007,5.817-.012,8.726,0,1.4-.066,2.809.02,4.206.14,2.284,1.456,3.562,3.829,3.821.955.1,1.916.144,2.875.212Z" transform="translate(-234.771 -17.529)" fill="#2485cc"/>
  <g id="Trust_symbol" data-name="Trust symbol" transform="translate(0)">
    <path id="Path_1" data-name="Path 1" d="M28.069,57c-.771-.063-1.544-.117-2.314-.189a27.644,27.644,0,0,1-14.925-5.99A28.1,28.1,0,0,1,.647,34.51,27.257,27.257,0,0,1,0,28.574Q0,14.7,0,.821C0,.015,0,.005.812,0q13.71,0,27.421,0A28.535,28.535,0,0,1,42.615,3.8c.428.245.484.43.232.849-.965,1.608-1.9,3.237-2.842,4.857-.058.1-.135.187-.231.318-.19-.1-.366-.19-.538-.288A21.593,21.593,0,0,0,28.391,6.668q-10.517-.011-21.035,0c-.689,0-.691,0-.691.7,0,7.323-.071,14.647.035,21.968A20.522,20.522,0,0,0,11.932,42.7a21.368,21.368,0,0,0,12.674,7.256A21.864,21.864,0,0,0,48.344,19.569a.906.906,0,0,1-.032-.694c1.149-2.029,2.329-4.041,3.5-6.056a2.42,2.42,0,0,1,.208-.249c.259.4.5.764.723,1.133a27.755,27.755,0,0,1,4.03,12.626,27.832,27.832,0,0,1-7.281,21.258A27.857,27.857,0,0,1,31.651,56.77c-.985.122-1.982.155-2.973.23Z" transform="translate(0 0)" fill="#2485cc"/>
    <path id="Path_3" data-name="Path 3" d="M75.05.116c-.412.719-.741,1.3-1.078,1.882L52.839,38.335c-.671,1.154-1.352,2.3-2.008,3.467a.773.773,0,0,1-.773.434q-3.04-.02-6.082,0a.742.742,0,0,1-.722-.429q-5.517-9.4-11.049-18.8c-.084-.143-.158-.291-.282-.522.243-.019.415-.045.587-.045,2.365,0,4.731.007,7.1-.011a.866.866,0,0,1,.844.488q3.161,5.2,6.351,10.38c.068.112.149.217.265.383.124-.2.225-.344.315-.5Q56.764,17.058,66.134.92A1.4,1.4,0,0,1,67.554.1c2.246.05,4.493.019,6.741.019h.755" transform="translate(-18.431 -0.055)" fill="#48dc6b"/>
  </g>
  <path id="Path_4" data-name="Path 4" d="M176.114,21.935h15.256c.675,0,.677,0,.678.666,0,1.657-.013,3.315.009,4.972.006.446-.135.576-.579.574-3.734-.016-7.468-.009-11.2-.008-.723,0-.725,0-.725.714q0,15.043,0,30.086c0,.815,0,.823-.8.825-1.774.006-3.548,0-5.322,0-.667,0-.669,0-.669-.676q0-14.941,0-29.882a4.058,4.058,0,0,1,0-.507c.058-.454-.14-.571-.577-.57-3.767.015-7.535.009-11.3.008-.679,0-.68,0-.68-.7q0-2.385,0-4.769c0-.732,0-.733.757-.733h15.154" transform="translate(-92.495 -12.643)" fill="#2485cc"/>
  <path id="Path_5" data-name="Path 5" d="M297.637,58.886q0,6.19.007,12.379a.631.631,0,0,1-.463.715,31.984,31.984,0,0,1-11.494,2.1,14.956,14.956,0,0,1-7.588-1.864,8,8,0,0,1-4.079-6.677c-.109-1.617-.086-3.244-.089-4.867q-.015-7.027,0-14.054c0-.737,0-.738.757-.738H279.7c.684,0,.686,0,.686.709,0,5.784.037,11.568-.017,17.351a4.341,4.341,0,0,0,2.95,4.382,10.2,10.2,0,0,0,7.565-.123c.387-.15.364-.426.364-.733q0-9.614,0-19.229c0-.626.013-1.252,0-1.877-.009-.338.093-.488.456-.485,1.825.012,3.649.017,5.474,0,.464-.005.464.249.463.58q-.006,6.215,0,12.43" transform="translate(-158.156 -26.444)" fill="#2485cc"/>
  <path id="Path_6" data-name="Path 6" d="M341.328,66.807l4.778-2.832a20.68,20.68,0,0,0,1.929,1.929,8.145,8.145,0,0,0,7.072,1.748,3.033,3.033,0,0,0,2.345-1.889,2.226,2.226,0,0,0-.921-2.826,9.077,9.077,0,0,0-3.435-1.145,21.116,21.116,0,0,1-7.047-2.272,7.128,7.128,0,0,1-3.87-6.349,7.32,7.32,0,0,1,3.83-6.748,13.571,13.571,0,0,1,5.712-1.763,14.748,14.748,0,0,1,11.185,3.528c.127.1.241.224.391.365-1.235,1.237-2.435,2.449-3.655,3.64a.483.483,0,0,1-.461-.017,10.339,10.339,0,0,0-6.322-2.124,5.81,5.81,0,0,0-2.854.57,2.364,2.364,0,0,0-.4,4.148,8.318,8.318,0,0,0,3.75,1.435,25.419,25.419,0,0,1,5.776,1.462,7.327,7.327,0,0,1,4.5,4.512,8.11,8.11,0,0,1-3.9,9.7,13,13,0,0,1-7.349,1.468,13.412,13.412,0,0,1-9.322-4.208,27.338,27.338,0,0,1-1.736-2.337" transform="translate(-197.071 -25.699)" fill="#2485cc"/>
  <path id="Path_7" data-name="Path 7" d="M244.149,50.044c-.53-.06-1.027-.13-1.526-.169a8.637,8.637,0,0,0-4.716.886,3.993,3.993,0,0,0-2.354,3.867c.038,5.835.014,11.67.014,17.5,0,.676,0,.679-.659.68-1.74,0-3.48-.011-5.221.008-.444.005-.582-.144-.582-.585.012-5.987-.017-11.975.017-17.961.025-4.362,2.556-7.617,6.921-9a16.766,16.766,0,0,1,7.617-.486c.385.057.541.2.534.61-.025,1.387-.009,2.774-.011,4.16,0,.148-.02.3-.034.482" transform="translate(-132.278 -25.69)" fill="#2485cc"/>
  <rect id="Rectangle_7" data-name="Rectangle 7" width="185" height="57" transform="translate(0 0)" fill="none"/>
</svg>
