<?xml version="1.0" encoding="utf-8"?>
<!-- Generator: Adobe Illustrator 25.2.3, SVG Export Plug-In . SVG Version: 6.00 Build 0)  -->
<svg version="1.1" id="Layer_1" xmlns="http://www.w3.org/2000/svg" xmlns:xlink="http://www.w3.org/1999/xlink" x="0px" y="0px"
	 viewBox="0 0 366.9 72.9" style="enable-background:new 0 0 366.9 72.9;" xml:space="preserve">
<style type="text/css">
	.st0{fill:#709D2F;}
</style>
<g>
	<g>
		<path d="M76.7,71.3c-1.3-1-2.6-2-3.9-3c-1-0.8-2-1.7-2.9-2.6l-24.4,4.7C59.4,74.1,71.5,72.4,76.7,71.3 M40.2,68.8l26.4-6.4
			c-1-1-1.9-2.1-2.8-3.2l-29.3,7.2C36.4,67.3,38.3,68.1,40.2,68.8 M30.1,64.2l31.8-7.3c-0.9-1.1-1.7-2.2-2.5-3.4
			c-0.5-0.8-1.1-1.6-1.6-2.3L23.6,60C25.8,61.5,27.9,62.9,30.1,64.2 M20.2,57.3L55.8,48c-1-1.6-2-3.2-3-4.9L16.4,53.2
			C17.6,54.6,18.8,55.9,20.2,57.3 M14.1,50.5l36.7-10.6c-0.6-0.9-1.2-1.9-1.8-2.8c-0.5-0.8-1-1.5-1.5-2.2l-37,10.8
			C11.6,47.3,12.8,48.9,14.1,50.5 M8.6,42.6l36.5-11.2c-1.3-1.7-2.6-3.4-4.1-5L6.4,38.5C7.1,39.9,7.8,41.2,8.6,42.6 M5,35.6
			l33.4-11.9c-0.4-0.4-0.9-0.8-1.3-1.2c-1.1-0.9-2.2-1.8-3.3-2.7L3,30.4C3.6,32.1,4.3,33.8,5,35.6 M2.2,27.7l28.6-10.1
			c-1.5-1.1-3.1-2.1-4.8-3.1L1.3,24.1C1.5,25.3,1.8,26.5,2.2,27.7 M0.7,21.2l21.7-8.8c-0.4-0.2-0.8-0.5-1.2-0.7
			c-1.2-0.6-2.3-1.2-3.5-1.8L0.3,17.5C0.4,18.7,0.5,19.9,0.7,21.2 M0.1,15l14.7-6.6C13,7.6,11.3,6.9,9.6,6.1L0,10.1
			C0,11.6,0,13.2,0.1,15 M0.2,7.5l6.4-2.6C5.5,4.5,4.4,4.1,3.4,3.7C2.5,3.4,1.7,3.1,0.8,2.8C0.6,3.9,0.4,5.5,0.2,7.5"/>
		<path class="st0" d="M75.3,41.8l-2.5,20.3c1,1,2,2,3.1,2.9c1.2,1.1,2.4,2.1,3.6,3.1C79.4,63.4,79,53,75.3,41.8 M70.1,59.4l3-23.2
			c-1.1-2.6-2.5-5.2-4-7.7l-3.2,26.1C67.2,56.2,68.6,57.8,70.1,59.4 M63.8,52l3.3-26.5c-1.4-2-3-3.9-4.7-5.7L60,46.8
			c1,1.4,2,2.8,3.1,4.2C63.3,51.4,63.6,51.7,63.8,52 M57.8,43.7l2.1-26.3c-0.7-0.6-1.3-1.2-2-1.7c-1.1-0.9-2.1-1.7-3.2-2.4
			l-0.5,25.3c1.1,1.6,2.2,3.2,3.2,4.8C57.6,43.4,57.7,43.5,57.8,43.7 M51.6,34.5L52,11.3c-1.5-1-3.1-2-4.6-2.8l1,21.8
			C49.5,31.6,50.6,33.1,51.6,34.5 M41.5,22.6c1.5,1.4,2.9,2.9,4.3,4.4L44.5,6.9c-1.6-0.8-3.1-1.5-4.6-2.1L41.5,22.6z M34.9,17.3
			c1.3,0.9,2.6,1.9,3.8,2.9L37.1,3.7c-1.6-0.6-3.2-1.1-4.7-1.5L34.9,17.3z M27.1,12.3c1.7,0.9,3.3,1.9,4.9,2.9L29.7,1.5
			c-1.6-0.4-3.1-0.6-4.7-0.8L27.1,12.3z M22.2,9.8c0.5,0.3,1,0.5,1.5,0.8L22.5,0.4c-1.5-0.2-2.9-0.3-4.3-0.3l1.5,8.5
			C20.5,8.9,21.4,9.3,22.2,9.8 M11.8,5.2c1.7,0.6,3.3,1.3,4.9,2L15.5,0c-1.4,0-2.7,0.1-4,0.1l0.5,5L11.8,5.2z M8.7,4.1l0.7-0.3
			L9.1,0.3C5.9,0.6,3.2,1.1,1.2,1.5c0,0,0,0,0,0.1C2,1.9,2.9,2.2,3.8,2.4C5.5,3,7.1,3.5,8.7,4.1"/>
	</g>
	<polygon class="st0" points="263.3,72.9 263.3,68.2 241.7,68.2 241.7,17.5 236.7,17.5 236.7,72.9 	"/>
	<polygon class="st0" points="295.8,72.9 295.8,68.2 275.6,68.2 275.6,46.2 294.5,46.2 294.5,41.6 275.6,41.6 275.6,22.2 
		295.8,22.2 295.8,17.5 270.5,17.5 270.5,72.9 	"/>
	<path class="st0" d="M323.9,51h-11.3l5.4-28.1L323.9,51z M334,72.9l-12.6-55.4h-6.6l-11.8,55.4h5.4l3.5-17.4h12.6l3.7,17.4H334z"/>
	<polygon class="st0" points="366.9,22.2 366.9,17.5 341.3,17.5 341.3,72.9 346.3,72.9 346.3,45.7 365.6,45.7 365.6,41 346.3,41 
		346.3,22.2 	"/>
	<path d="M110.5,33.9c0,1.2-0.1,2.3-0.4,3.1c-0.3,0.9-0.7,1.6-1.2,2.2c-0.5,0.6-1.2,1-1.9,1.3c-0.7,0.3-1.5,0.4-2.4,0.4H101V26.7
		h4.2c0.7,0,1.3,0.1,2,0.4c0.6,0.2,1.2,0.7,1.7,1.2c0.5,0.6,0.9,1.3,1.2,2.2C110.4,31.4,110.5,32.5,110.5,33.9 M121.2,37.6
		c0.3-1.4,0.4-2.6,0.4-3.8c0-2.2-0.2-4.1-0.6-5.7c-0.4-1.6-1-3.1-1.7-4.3c-0.7-1.2-1.6-2.2-2.5-3c-1-0.8-2-1.5-3.1-2
		c-1.1-0.5-2.3-0.8-3.5-1c-1.2-0.2-2.5-0.3-3.7-0.3H90v55.4H101V49.8l11.8,23.1h13l-14.3-24.4c2.1-0.7,3.8-1.7,5.1-2.9
		c1.3-1.2,2.3-2.5,3.1-3.8C120.4,40.4,120.9,39,121.2,37.6"/>
	<polygon points="156.9,72.9 156.9,63.4 140.1,63.4 140.1,48.7 155.5,48.7 155.5,39.3 140.1,39.3 140.1,27 156.9,27 156.9,17.5 
		129.1,17.5 129.1,72.9 	"/>
	<path d="M177.1,42.5h5.5l-2.6,14.1L177.1,42.5z M159.5,17.5l14.1,55.4h12.6l13.1-55.4h-11.4l-3.7,16h-8.9l-4-16H159.5z"/>
	<polygon points="229.4,72.9 229.4,63.4 213.8,63.4 213.8,17.5 202.9,17.5 202.9,72.9 	"/>
</g>
</svg>
