<svg width="103" height="30" viewBox="0 0 103 30" fill="none" xmlns="http://www.w3.org/2000/svg">
<path d="M10.1832 4.41094C9.79213 4.30616 9.36924 4.40556 9.0346 4.68093L3.43061 9.29239C3.06004 9.59733 2.94124 10.1462 3.154 10.5703L9.62899 23.4787C9.97976 24.178 10.7996 24.3977 11.453 23.9675L23.5147 16.026C23.9111 15.765 24.0826 15.2303 23.9142 14.7809L21.3667 7.98531C21.2146 7.57951 20.898 7.28198 20.507 7.1772L10.1832 4.41094Z" stroke="#1589CA" stroke-width="2"/>
<path d="M35.1136 9.8H42.3136V11.4H36.7936V14.6H41.9936V16.2H36.7936V21H35.1136V9.8ZM44.0786 13H45.4386L45.5986 13.72H45.6786C45.7426 13.6453 45.8119 13.5653 45.8866 13.48C45.9612 13.3947 46.0519 13.32 46.1586 13.256C46.2759 13.1813 46.4146 13.1227 46.5746 13.08C46.7452 13.0267 46.9532 13 47.1986 13H48.6386V14.44H47.3586C46.2386 14.44 45.6786 14.9947 45.6786 16.104V21H44.0786V13ZM55.4517 16.36C55.3664 15.72 55.1157 15.2027 54.6997 14.808C54.2944 14.4027 53.7717 14.2 53.1317 14.2C52.449 14.2 51.905 14.4027 51.4997 14.808C51.105 15.2027 50.849 15.72 50.7317 16.36H55.4517ZM56.7317 18.68C56.6357 18.936 56.4917 19.2133 56.2997 19.512C56.1077 19.8 55.8624 20.0667 55.5637 20.312C55.2757 20.5573 54.929 20.76 54.5237 20.92C54.1184 21.08 53.6544 21.16 53.1317 21.16C52.5557 21.16 52.0224 21.0587 51.5317 20.856C51.041 20.6533 50.6144 20.3707 50.2517 20.008C49.8997 19.6453 49.6224 19.208 49.4197 18.696C49.2277 18.184 49.1317 17.6187 49.1317 17C49.1317 16.3813 49.2277 15.816 49.4197 15.304C49.6224 14.792 49.8997 14.3547 50.2517 13.992C50.6144 13.6293 51.041 13.3467 51.5317 13.144C52.0224 12.9413 52.5557 12.84 53.1317 12.84C53.6757 12.84 54.177 12.9413 54.6357 13.144C55.105 13.336 55.5104 13.608 55.8517 13.96C56.2037 14.312 56.4757 14.728 56.6677 15.208C56.8704 15.6773 56.9717 16.1947 56.9717 16.76C56.9717 16.8773 56.9664 16.984 56.9557 17.08C56.945 17.176 56.9344 17.2613 56.9237 17.336L56.8917 17.56H50.7317C50.817 18.2427 51.0784 18.7867 51.5157 19.192C51.953 19.5973 52.4917 19.8 53.1317 19.8C53.6117 19.8 54.017 19.6827 54.3477 19.448C54.689 19.2133 54.9237 18.9573 55.0517 18.68H56.7317ZM64.5767 16.36C64.4914 15.72 64.2407 15.2027 63.8247 14.808C63.4194 14.4027 62.8967 14.2 62.2567 14.2C61.574 14.2 61.03 14.4027 60.6247 14.808C60.23 15.2027 59.974 15.72 59.8567 16.36H64.5767ZM65.8567 18.68C65.7607 18.936 65.6167 19.2133 65.4247 19.512C65.2327 19.8 64.9874 20.0667 64.6887 20.312C64.4007 20.5573 64.054 20.76 63.6487 20.92C63.2434 21.08 62.7794 21.16 62.2567 21.16C61.6807 21.16 61.1474 21.0587 60.6567 20.856C60.166 20.6533 59.7394 20.3707 59.3767 20.008C59.0247 19.6453 58.7474 19.208 58.5447 18.696C58.3527 18.184 58.2567 17.6187 58.2567 17C58.2567 16.3813 58.3527 15.816 58.5447 15.304C58.7474 14.792 59.0247 14.3547 59.3767 13.992C59.7394 13.6293 60.166 13.3467 60.6567 13.144C61.1474 12.9413 61.6807 12.84 62.2567 12.84C62.8007 12.84 63.302 12.9413 63.7607 13.144C64.23 13.336 64.6354 13.608 64.9767 13.96C65.3287 14.312 65.6007 14.728 65.7927 15.208C65.9954 15.6773 66.0967 16.1947 66.0967 16.76C66.0967 16.8773 66.0914 16.984 66.0807 17.08C66.07 17.176 66.0594 17.2613 66.0487 17.336L66.0167 17.56H59.8567C59.942 18.2427 60.2034 18.7867 60.6407 19.192C61.078 19.5973 61.6167 19.8 62.2567 19.8C62.7367 19.8 63.142 19.6827 63.4727 19.448C63.814 19.2133 64.0487 18.9573 64.1767 18.68H65.8567ZM73.8629 11.4H70.3429V9.8H79.0629V11.4H75.5429V21H73.8629V11.4ZM85.1498 21.16C84.4138 21.16 83.7205 21.0213 83.0698 20.744C82.4192 20.4667 81.8485 20.0773 81.3578 19.576C80.8778 19.064 80.4938 18.456 80.2058 17.752C79.9285 17.048 79.7898 16.264 79.7898 15.4C79.7898 14.536 79.9285 13.752 80.2058 13.048C80.4938 12.344 80.8778 11.7413 81.3578 11.24C81.8485 10.728 82.4192 10.3333 83.0698 10.056C83.7205 9.77867 84.4138 9.64 85.1498 9.64C85.8858 9.64 86.5792 9.77867 87.2298 10.056C87.8805 10.3333 88.4458 10.728 88.9258 11.24C89.4165 11.7413 89.8005 12.344 90.0778 13.048C90.3658 13.752 90.5098 14.536 90.5098 15.4C90.5098 16.264 90.3658 17.048 90.0778 17.752C89.8005 18.456 89.4165 19.064 88.9258 19.576C88.4458 20.0773 87.8805 20.4667 87.2298 20.744C86.5792 21.0213 85.8858 21.16 85.1498 21.16ZM85.1498 11.24C84.6272 11.24 84.1418 11.336 83.6938 11.528C83.2458 11.72 82.8565 11.9973 82.5258 12.36C82.1952 12.7227 81.9338 13.16 81.7418 13.672C81.5605 14.184 81.4698 14.76 81.4698 15.4C81.4698 16.04 81.5605 16.616 81.7418 17.128C81.9338 17.64 82.1952 18.0773 82.5258 18.44C82.8565 18.8027 83.2458 19.08 83.6938 19.272C84.1418 19.464 84.6272 19.56 85.1498 19.56C85.6725 19.56 86.1578 19.464 86.6058 19.272C87.0538 19.08 87.4432 18.8027 87.7738 18.44C88.1045 18.0773 88.3605 17.64 88.5418 17.128C88.7338 16.616 88.8298 16.04 88.8298 15.4C88.8298 14.76 88.7338 14.184 88.5418 13.672C88.3605 13.16 88.1045 12.7227 87.7738 12.36C87.4432 11.9973 87.0538 11.72 86.6058 11.528C86.1578 11.336 85.6725 11.24 85.1498 11.24ZM92.4261 9.8H94.9061L99.4661 18.52H99.7861V9.8H101.466V21H98.9861L94.4261 12.28H94.1061V21H92.4261V9.8Z" fill="#1589CA"/>
</svg>
